D:\Junayed_Zibat\opencap-processing\Data\312d5121-d82d-4833-a1b5-4f6827ad0820\OpenSimData\Dynamics\walking\GRF_resultant_walking_walking_setup.mot
version=1
nRows=17
nColumns=19
inDegrees=yes
endheader 
time	ground_force_right_vx	ground_force_right_vy	ground_force_right_vz	ground_force_right_px	ground_force_right_py	ground_force_right_pz	ground_torque_right_x	ground_torque_right_y	ground_torque_right_z	ground_force_left_vx	ground_force_left_vy	ground_force_left_vz	ground_force_left_px	ground_force_left_py	ground_force_left_pz	ground_torque_left_x	ground_torque_left_y	ground_torque_left_z	
          2.40000000	         62.87753755	        797.93732157	        -62.84005757	          0.29163175	          0.00000000	         -0.14289782	          0.00000000	          3.29108310	          0.00000000	         -0.00057017	          0.00063663	         -0.00017248	          0.61712238	          0.00000000	         -0.43247594	          0.00000000	          0.00000136	          0.00000000	
          2.41000000	         62.23717641	        789.44141742	        -63.63672832	          0.29388317	          0.00000000	         -0.14276903	          0.00000000	          2.72920739	          0.00000000	         -0.00071942	          0.00113059	         -0.00025371	          0.62763546	          0.00000000	         -0.42791899	          0.00000000	          0.00000385	          0.00000000	
          2.42000000	         64.34843033	        782.73240079	        -63.75044155	          0.29628742	          0.00000000	         -0.14261085	          0.00000000	          2.19059379	          0.00000000	         -0.00041523	          0.00233813	         -0.00021362	          0.64870458	          0.00000000	         -0.41920272	          0.00000000	          0.00000706	          0.00000000	
          2.43000000	         64.21984049	        780.50494880	        -64.65519192	          0.29882082	          0.00000000	         -0.14244150	          0.00000000	          1.66290961	          0.00000000	          0.00118079	          0.00655967	          0.00033523	          0.68278067	          0.00000000	         -0.40589601	          0.00000000	          0.00000490	          0.00000000	
          2.44000000	         67.99641840	        781.51901099	        -64.36647622	          0.30154925	          0.00000000	         -0.14227304	          0.00000000	          1.19487782	          0.00000000	          0.01175109	          0.02631768	          0.00523653	          0.71112976	          0.00000000	         -0.39543025	          0.00000000	         -0.00002021	          0.00000000	
          2.45000000	         68.48012319	        788.72052192	        -65.02181636	          0.30445217	          0.00000000	         -0.14213515	          0.00000000	          0.74407251	          0.00000000	          0.08218941	          0.13030024	          0.04133655	          0.72559203	          0.00000000	         -0.39082199	          0.00000000	         -0.00010773	          0.00000000	
          2.46000000	         73.11044451	        798.63133549	        -63.94399916	          0.30758998	          0.00000000	         -0.14204883	          0.00000000	          0.36513490	          0.00000000	          0.51329572	          0.67032574	          0.25728662	          0.73381816	          0.00000000	         -0.38907477	          0.00000000	         -0.00056746	          0.00000000	
          2.47000000	         72.24466467	        812.17496057	        -63.60195307	          0.31083033	          0.00000000	         -0.14206270	          0.00000000	         -0.02493416	          0.00000000	          2.58167545	          3.14444101	          1.18857137	          0.74235287	          0.00000000	         -0.38793713	          0.00000000	         -0.00352564	          0.00000000	
          2.48000000	         74.99140601	        824.00838629	        -60.45824013	          0.31418791	          0.00000000	         -0.14220457	          0.00000000	         -0.36456578	          0.00000000	          9.74423428	         11.43702876	          3.63529000	          0.75276708	          0.00000000	         -0.38686583	          0.00000000	         -0.01939851	          0.00000000	
          2.49000000	         69.48873271	        833.96288267	        -56.65620837	          0.31746802	          0.00000000	         -0.14251425	          0.00000000	         -0.76384236	          0.00000000	         25.58986823	         29.08847984	          6.43248498	          0.75800659	          0.00000000	         -0.38631233	          0.00000000	         -0.06596770	          0.00000000	
          2.50000000	         68.06429576	        833.80001818	        -48.14043073	          0.32091362	          0.00000000	         -0.14295645	          0.00000000	         -1.15167035	          0.00000000	         70.42897791	         81.75933901	          7.41408347	          0.76022852	          0.00000000	         -0.38610774	          0.00000000	         -0.22449058	          0.00000000	
          2.51000000	         54.36617492	        820.67159604	        -38.14499375	          0.32466842	          0.00000000	         -0.14349306	          0.00000000	         -1.61116909	          0.00000000	         67.63734563	        151.35787723	         -3.74147227	          0.76024506	          0.00000000	         -0.38609526	          0.00000000	         -0.48289243	          0.00000000	
          2.52000000	         44.83613391	        788.38018168	        -25.46512610	          0.32896386	          0.00000000	         -0.14412644	          0.00000000	         -1.98415359	          0.00000000	         46.38706519	        206.60740651	        -14.70708960	          0.75919990	          0.00000000	         -0.38601554	          0.00000000	         -0.69546004	          0.00000000	
          2.53000000	         33.53092461	        749.01421046	        -13.59647737	          0.33334051	          0.00000000	         -0.14478571	          0.00000000	         -2.30487026	          0.00000000	         43.89760506	        244.08221225	        -17.88504893	          0.75854799	          0.00000000	         -0.38577699	          0.00000000	         -0.85697871	          0.00000000	
          2.54000000	         27.56465709	        708.41893411	         -2.10536543	          0.33774912	          0.00000000	         -0.14534913	          0.00000000	         -2.54866087	          0.00000000	         43.32829494	        263.25184271	        -20.58479319	          0.75806284	          0.00000000	         -0.38555027	          0.00000000	         -0.96778122	          0.00000000	
          2.55000000	         22.28999495	        671.49688613	          8.53768906	          0.34229970	          0.00000000	         -0.14577061	          0.00000000	         -2.66344150	          0.00000000	         42.42243046	        268.39602322	        -24.07980588	          0.75775192	          0.00000000	         -0.38534990	          0.00000000	         -1.04435069	          0.00000000	
          2.56000000	         20.67725314	        640.33833634	         18.39209617	          0.34698896	          0.00000000	         -0.14599246	          0.00000000	         -2.70581546	          0.00000000	         47.11189406	        265.01419339	        -26.66215183	          0.75767033	          0.00000000	         -0.38513621	          0.00000000	         -1.09989864	          0.00000000	
